<svg width="244" height="349" viewBox="0 0 244 349" fill="none" xmlns="http://www.w3.org/2000/svg">
<mask id="path-1-inside-1_53_2531" fill="white">
<path fill-rule="evenodd" clip-rule="evenodd" d="M76 65.0844C84.1142 62.5359 90 54.9553 90 46C90 34.9543 81.0457 26 70 26C58.9543 26 50 34.9543 50 46C50 54.9553 55.8858 62.5359 64 65.0844V126H76V65.0844Z"/>
</mask>
<path fill-rule="evenodd" clip-rule="evenodd" d="M76 65.0844C84.1142 62.5359 90 54.9553 90 46C90 34.9543 81.0457 26 70 26C58.9543 26 50 34.9543 50 46C50 54.9553 55.8858 62.5359 64 65.0844V126H76V65.0844Z" fill="#5761F6"/>
<path d="M76 65.0844L75.4007 63.1763L74 63.6162V65.0844H76ZM64 65.0844H66V63.6162L64.5993 63.1763L64 65.0844ZM64 126H62V128H64V126ZM76 126V128H78V126H76ZM88 46C88 54.0567 82.7053 60.8821 75.4007 63.1763L76.5993 66.9925C85.5231 64.1897 92 55.8538 92 46H88ZM70 28C79.9411 28 88 36.0589 88 46H92C92 33.8497 82.1503 24 70 24V28ZM52 46C52 36.0589 60.0589 28 70 28V24C57.8497 24 48 33.8497 48 46H52ZM64.5993 63.1763C57.2947 60.8821 52 54.0567 52 46H48C48 55.8538 54.4769 64.1897 63.4007 66.9925L64.5993 63.1763ZM66 126V65.0844H62V126H66ZM76 124H64V128H76V124ZM74 65.0844V126H78V65.0844H74Z" fill="#31FAEF" mask="url(#path-1-inside-1_53_2531)"/>
<mask id="path-3-inside-2_53_2531" fill="white">
<path fill-rule="evenodd" clip-rule="evenodd" d="M172 55.3556C184.581 52.609 194 41.4045 194 28C194 12.536 181.464 0 166 0C150.536 0 138 12.536 138 28C138 41.4045 147.419 52.609 160 55.3556V122H172V55.3556Z"/>
</mask>
<path fill-rule="evenodd" clip-rule="evenodd" d="M172 55.3556C184.581 52.609 194 41.4045 194 28C194 12.536 181.464 0 166 0C150.536 0 138 12.536 138 28C138 41.4045 147.419 52.609 160 55.3556V122H172V55.3556Z" fill="#5761F6"/>
<path d="M172 55.3556L171.573 53.4017L170 53.7452V55.3556H172ZM160 55.3556H162V53.7452L160.427 53.4017L160 55.3556ZM160 122H158V124H160V122ZM172 122V124H174V122H172ZM192 28C192 40.4446 183.255 50.8513 171.573 53.4017L172.427 57.3096C185.906 54.3666 196 42.3644 196 28H192ZM166 2C180.359 2 192 13.6406 192 28H196C196 11.4315 182.569 -2 166 -2V2ZM140 28C140 13.6406 151.641 2 166 2V-2C149.431 -2 136 11.4315 136 28H140ZM160.427 53.4017C148.745 50.8513 140 40.4446 140 28H136C136 42.3644 146.094 54.3666 159.573 57.3096L160.427 53.4017ZM162 122V55.3556H158V122H162ZM172 120H160V124H172V120ZM170 55.3556V122H174V55.3556H170Z" fill="#31FAEF" mask="url(#path-3-inside-2_53_2531)"/>
<mask id="path-5-inside-3_53_2531" fill="white">
<path fill-rule="evenodd" clip-rule="evenodd" d="M244 227C244 159.621 189.379 105 122 105C54.6213 105 0 159.621 0 227C0 294.379 54.6213 349 122 349H211C229.225 349 244 334.225 244 316V227Z"/>
</mask>
<path d="M122 117C182.751 117 232 166.249 232 227H256C256 152.994 196.006 93 122 93V117ZM12 227C12 166.249 61.2487 117 122 117V93C47.9938 93 -12 152.994 -12 227H12ZM122 337C61.2487 337 12 287.751 12 227H-12C-12 301.006 47.9938 361 122 361V337ZM211 337H122V361H211V337ZM232 316C232 327.598 222.598 337 211 337V361C235.853 361 256 340.853 256 316H232ZM232 227V316H256V227H232Z" fill="#5761F6" mask="url(#path-5-inside-3_53_2531)"/>
<g filter="url(#filter0_d_53_2531)">
<rect x="134" y="194" width="56" height="56" rx="8" fill="#31FAEF"/>
</g>
<g filter="url(#filter1_d_53_2531)">
<rect x="54" y="198" width="48" height="48" rx="8" fill="#31FAEF"/>
</g>
<defs>
<filter id="filter0_d_53_2531" x="121" y="183" width="82" height="82" filterUnits="userSpaceOnUse" color-interpolation-filters="sRGB">
<feFlood flood-opacity="0" result="BackgroundImageFix"/>
<feColorMatrix in="SourceAlpha" type="matrix" values="0 0 0 0 0 0 0 0 0 0 0 0 0 0 0 0 0 0 127 0" result="hardAlpha"/>
<feOffset dy="2"/>
<feGaussianBlur stdDeviation="6.5"/>
<feComposite in2="hardAlpha" operator="out"/>
<feColorMatrix type="matrix" values="0 0 0 0 0.194271 0 0 0 0 0.955729 0 0 0 0 0.914057 0 0 0 0.6 0"/>
<feBlend mode="normal" in2="BackgroundImageFix" result="effect1_dropShadow_53_2531"/>
<feBlend mode="normal" in="SourceGraphic" in2="effect1_dropShadow_53_2531" result="shape"/>
</filter>
<filter id="filter1_d_53_2531" x="41" y="187" width="74" height="74" filterUnits="userSpaceOnUse" color-interpolation-filters="sRGB">
<feFlood flood-opacity="0" result="BackgroundImageFix"/>
<feColorMatrix in="SourceAlpha" type="matrix" values="0 0 0 0 0 0 0 0 0 0 0 0 0 0 0 0 0 0 127 0" result="hardAlpha"/>
<feOffset dy="2"/>
<feGaussianBlur stdDeviation="6.5"/>
<feComposite in2="hardAlpha" operator="out"/>
<feColorMatrix type="matrix" values="0 0 0 0 0.194271 0 0 0 0 0.955729 0 0 0 0 0.914057 0 0 0 0.6 0"/>
<feBlend mode="normal" in2="BackgroundImageFix" result="effect1_dropShadow_53_2531"/>
<feBlend mode="normal" in="SourceGraphic" in2="effect1_dropShadow_53_2531" result="shape"/>
</filter>
</defs>
</svg>
