<svg width="239" height="413" viewBox="0 0 239 413" fill="none" xmlns="http://www.w3.org/2000/svg">
<path d="M109.427 401.607L107.427 412.506L118.574 409.494L111.358 401.085L109.427 401.607ZM45.5 378L45.6339 378.991L45.5 378ZM225.79 0.0425779C225.262 -0.117754 224.703 0.180706 224.543 0.709206L221.93 9.32161C221.77 9.85011 222.068 10.4085 222.597 10.5688C223.125 10.7292 223.684 10.4307 223.844 9.90222L226.166 2.24675L233.822 4.5692C234.35 4.72953 234.909 4.43107 235.069 3.90257C235.229 3.37407 234.931 2.81567 234.402 2.65533L225.79 0.0425779ZM111.611 402.021C99.4563 359.667 82.2393 337.667 64.7994 328.466C47.3159 319.241 29.8295 322.992 17.4953 331.63C11.3331 335.946 6.4269 341.499 3.42766 347.309C0.433001 353.11 -0.698148 359.248 0.846218 364.672C2.40295 370.14 6.62538 374.697 13.9436 377.381C21.229 380.054 31.6066 380.887 45.6339 378.991L45.3661 377.009C31.5095 378.882 21.495 378.021 14.6324 375.504C7.80259 372.999 4.12099 368.871 2.76978 364.125C1.4062 359.335 2.36318 353.731 5.20481 348.226C8.04187 342.731 12.7201 337.416 18.6426 333.269C30.4778 324.98 47.1617 321.421 63.8661 330.234C80.6142 339.071 97.6027 360.459 109.688 402.573L111.611 402.021ZM45.6339 378.991C78.3333 374.572 108.876 354.076 135.538 324.616C162.209 295.146 185.076 256.622 202.42 215.954C219.764 175.285 231.605 132.428 236.196 94.2674C240.782 56.1484 238.153 22.5524 226.382 0.528135L224.618 1.47089C236.096 22.9466 238.78 56.0382 234.21 94.0285C229.645 131.978 217.86 174.652 200.58 215.17C183.299 255.69 160.54 294.01 134.055 323.274C107.561 352.549 77.4166 372.678 45.3661 377.009L45.6339 378.991Z" fill="#3D3867"/>
</svg>
