<svg width="16" height="16" viewBox="0 0 16 16" fill="none" xmlns="http://www.w3.org/2000/svg">
<path fill-rule="evenodd" clip-rule="evenodd" d="M10.6661 8.66628C10.2981 8.66628 9.99941 8.36761 9.99941 7.99961C9.99941 7.63161 10.2981 7.33294 10.6661 7.33294C11.0341 7.33294 11.3327 7.63161 11.3327 7.99961C11.3327 8.36761 11.0341 8.66628 10.6661 8.66628ZM7.99941 8.66628C7.63141 8.66628 7.33275 8.36761 7.33275 7.99961C7.33275 7.63161 7.63141 7.33294 7.99941 7.33294C8.36741 7.33294 8.66608 7.63161 8.66608 7.99961C8.66608 8.36761 8.36741 8.66628 7.99941 8.66628ZM5.33275 8.66628C4.96475 8.66628 4.66608 8.36761 4.66608 7.99961C4.66608 7.63161 4.96475 7.33294 5.33275 7.33294C5.70075 7.33294 5.99941 7.63161 5.99941 7.99961C5.99941 8.36761 5.70075 8.66628 5.33275 8.66628ZM12.7134 3.28561C11.1907 1.76294 9.08341 1.08361 6.93075 1.41628C4.21275 1.84028 1.95941 4.02961 1.45075 6.74094C1.20608 8.04628 1.34675 9.37561 1.85808 10.5843C1.92341 10.7376 1.94341 10.8816 1.91741 11.0103L1.34608 13.8689C1.30208 14.0876 1.37075 14.3136 1.52808 14.4709C1.65408 14.5969 1.82408 14.6663 1.99941 14.6663C2.04275 14.6663 2.08675 14.6623 2.13008 14.6529L4.98541 14.0823C5.14941 14.0509 5.30875 14.0969 5.41475 14.1409C6.62408 14.6523 7.95341 14.7923 9.25808 14.5483C11.9694 14.0396 14.1587 11.7863 14.5827 9.06828C14.9181 6.91628 14.2367 4.80894 12.7134 3.28561Z" fill="#5761F6"/>
<mask id="mask0_37_1160" style="mask-type:luminance" maskUnits="userSpaceOnUse" x="1" y="1" width="14" height="14">
<path fill-rule="evenodd" clip-rule="evenodd" d="M10.6661 8.66628C10.2981 8.66628 9.99941 8.36761 9.99941 7.99961C9.99941 7.63161 10.2981 7.33294 10.6661 7.33294C11.0341 7.33294 11.3327 7.63161 11.3327 7.99961C11.3327 8.36761 11.0341 8.66628 10.6661 8.66628ZM7.99941 8.66628C7.63141 8.66628 7.33275 8.36761 7.33275 7.99961C7.33275 7.63161 7.63141 7.33294 7.99941 7.33294C8.36741 7.33294 8.66608 7.63161 8.66608 7.99961C8.66608 8.36761 8.36741 8.66628 7.99941 8.66628ZM5.33275 8.66628C4.96475 8.66628 4.66608 8.36761 4.66608 7.99961C4.66608 7.63161 4.96475 7.33294 5.33275 7.33294C5.70075 7.33294 5.99941 7.63161 5.99941 7.99961C5.99941 8.36761 5.70075 8.66628 5.33275 8.66628ZM12.7134 3.28561C11.1907 1.76294 9.08341 1.08361 6.93075 1.41628C4.21275 1.84028 1.95941 4.02961 1.45075 6.74094C1.20608 8.04628 1.34675 9.37561 1.85808 10.5843C1.92341 10.7376 1.94341 10.8816 1.91741 11.0103L1.34608 13.8689C1.30208 14.0876 1.37075 14.3136 1.52808 14.4709C1.65408 14.5969 1.82408 14.6663 1.99941 14.6663C2.04275 14.6663 2.08675 14.6623 2.13008 14.6529L4.98541 14.0823C5.14941 14.0509 5.30875 14.0969 5.41475 14.1409C6.62408 14.6523 7.95341 14.7923 9.25808 14.5483C11.9694 14.0396 14.1587 11.7863 14.5827 9.06828C14.9181 6.91628 14.2367 4.80894 12.7134 3.28561Z" fill="white"/>
</mask>
<g mask="url(#mask0_37_1160)">
<rect width="16" height="16" fill="#5761F6"/>
</g>
</svg>
