<svg width="20" height="20" viewBox="0 0 20 20" fill="none" xmlns="http://www.w3.org/2000/svg">
<path fill-rule="evenodd" clip-rule="evenodd" d="M8.21965 15C7.98965 15 7.76965 14.905 7.61215 14.7375L3.55965 10.4217C3.24381 10.0867 3.26131 9.55918 3.59631 9.24418C3.93215 8.92918 4.45965 8.94585 4.77381 9.28085L8.21131 12.94L15.218 5.27168C15.5296 4.93085 16.0563 4.90835 16.3963 5.21835C16.7355 5.52835 16.7588 6.05585 16.4488 6.39501L8.83465 14.7283C8.67881 14.9 8.45715 14.9983 8.22548 15H8.21965Z" fill="#EC7323"/>
<mask id="mask0_288_15901" style="mask-type:luminance" maskUnits="userSpaceOnUse" x="3" y="5" width="14" height="10">
<path fill-rule="evenodd" clip-rule="evenodd" d="M8.21965 15C7.98965 15 7.76965 14.905 7.61215 14.7375L3.55965 10.4217C3.24381 10.0867 3.26131 9.55918 3.59631 9.24418C3.93215 8.92918 4.45965 8.94585 4.77381 9.28085L8.21131 12.94L15.218 5.27168C15.5296 4.93085 16.0563 4.90835 16.3963 5.21835C16.7355 5.52835 16.7588 6.05585 16.4488 6.39501L8.83465 14.7283C8.67881 14.9 8.45715 14.9983 8.22548 15H8.21965Z" fill="white"/>
</mask>
<g mask="url(#mask0_288_15901)">
<rect width="20" height="20" fill="#EC7323"/>
</g>
</svg>
