<svg width="40" height="60" viewBox="0 0 40 60" fill="none" xmlns="http://www.w3.org/2000/svg">
<g clip-path="url(#clip0_90_1688)">
<path d="M21 38H19V60H21V38Z" fill="white"/>
<path d="M20 40C31.0457 40 40 31.0457 40 20C40 8.9543 31.0457 0 20 0C8.9543 0 0 8.9543 0 20C0 31.0457 8.9543 40 20 40Z" fill="white"/>
<path fill-rule="evenodd" clip-rule="evenodd" d="M21.4143 20.0003L25.7072 15.7073C26.0982 15.3163 26.0982 14.6842 25.7072 14.2932C25.3162 13.9022 24.6844 13.9022 24.2934 14.2932L20.0003 18.5863L15.7073 14.2932C15.3163 13.9022 14.6842 13.9022 14.2932 14.2932C13.9022 14.6842 13.9022 15.3163 14.2932 15.7073L18.5863 20.0003L14.2932 24.2934C13.9022 24.6844 13.9022 25.3162 14.2932 25.7072C14.4882 25.9022 14.7443 26.0003 15.0003 26.0003C15.2563 26.0003 15.5124 25.9022 15.7073 25.7072L20.0003 21.4143L24.2934 25.7072C24.4884 25.9022 24.7443 26.0003 25.0003 26.0003C25.2563 26.0003 25.5122 25.9022 25.7072 25.7072C26.0982 25.3162 26.0982 24.6844 25.7072 24.2934L21.4143 20.0003Z" fill="#EC7323"/>
<mask id="mask0_90_1688" style="mask-type:luminance" maskUnits="userSpaceOnUse" x="14" y="14" width="13" height="13">
<path fill-rule="evenodd" clip-rule="evenodd" d="M21.4143 20.0003L25.7072 15.7073C26.0982 15.3163 26.0982 14.6842 25.7072 14.2932C25.3162 13.9022 24.6844 13.9022 24.2934 14.2932L20.0003 18.5863L15.7073 14.2932C15.3163 13.9022 14.6842 13.9022 14.2932 14.2932C13.9022 14.6842 13.9022 15.3163 14.2932 15.7073L18.5863 20.0003L14.2932 24.2934C13.9022 24.6844 13.9022 25.3162 14.2932 25.7072C14.4882 25.9022 14.7443 26.0003 15.0003 26.0003C15.2563 26.0003 15.5124 25.9022 15.7073 25.7072L20.0003 21.4143L24.2934 25.7072C24.4884 25.9022 24.7443 26.0003 25.0003 26.0003C25.2563 26.0003 25.5122 25.9022 25.7072 25.7072C26.0982 25.3162 26.0982 24.6844 25.7072 24.2934L21.4143 20.0003Z" fill="white"/>
</mask>
<g mask="url(#mask0_90_1688)">
<path d="M32 8H8V32H32V8Z" fill="#2B2649"/>
</g>
</g>
<defs>
<clipPath id="clip0_90_1688">
<rect width="40" height="60" fill="white"/>
</clipPath>
</defs>
</svg>
