<svg width="16" height="16" viewBox="0 0 16 16" fill="none" xmlns="http://www.w3.org/2000/svg">
<path fill-rule="evenodd" clip-rule="evenodd" d="M5.66634 6.3335C5.66634 5.04683 6.71301 4.00016 7.99967 4.00016C9.28634 4.00016 10.333 5.04683 10.333 6.3335C10.333 7.38683 9.62634 8.26883 8.66634 8.55816V9.3335C8.66634 9.70216 8.36834 10.0002 7.99967 10.0002C7.63101 10.0002 7.33301 9.70216 7.33301 9.3335V8.00016C7.33301 7.6315 7.63101 7.3335 7.99967 7.3335C8.55101 7.3335 8.99967 6.88483 8.99967 6.3335C8.99967 5.78216 8.55101 5.3335 7.99967 5.3335C7.44834 5.3335 6.99967 5.78216 6.99967 6.3335C6.99967 6.70216 6.70167 7.00016 6.33301 7.00016C5.96434 7.00016 5.66634 6.70216 5.66634 6.3335ZM7.33301 11.3335C7.33301 10.9648 7.63101 10.6668 7.99967 10.6668C8.36834 10.6668 8.66634 10.9648 8.66634 11.3335C8.66634 11.7022 8.36834 12.0002 7.99967 12.0002C7.63101 12.0002 7.33301 11.7022 7.33301 11.3335ZM7.99967 13.3335C5.05901 13.3335 2.66634 10.9408 2.66634 8.00016C2.66634 5.0595 5.05901 2.66683 7.99967 2.66683C10.9403 2.66683 13.333 5.0595 13.333 8.00016C13.333 10.9408 10.9403 13.3335 7.99967 13.3335ZM7.99967 1.3335C4.32367 1.3335 1.33301 4.32416 1.33301 8.00016C1.33301 11.6762 4.32367 14.6668 7.99967 14.6668C11.6757 14.6668 14.6663 11.6762 14.6663 8.00016C14.6663 4.32416 11.6757 1.3335 7.99967 1.3335Z" fill="#5761F6"/>
<mask id="mask0_37_1178" style="mask-type:luminance" maskUnits="userSpaceOnUse" x="1" y="1" width="14" height="14">
<path fill-rule="evenodd" clip-rule="evenodd" d="M5.66634 6.3335C5.66634 5.04683 6.71301 4.00016 7.99967 4.00016C9.28634 4.00016 10.333 5.04683 10.333 6.3335C10.333 7.38683 9.62634 8.26883 8.66634 8.55816V9.3335C8.66634 9.70216 8.36834 10.0002 7.99967 10.0002C7.63101 10.0002 7.33301 9.70216 7.33301 9.3335V8.00016C7.33301 7.6315 7.63101 7.3335 7.99967 7.3335C8.55101 7.3335 8.99967 6.88483 8.99967 6.3335C8.99967 5.78216 8.55101 5.3335 7.99967 5.3335C7.44834 5.3335 6.99967 5.78216 6.99967 6.3335C6.99967 6.70216 6.70167 7.00016 6.33301 7.00016C5.96434 7.00016 5.66634 6.70216 5.66634 6.3335ZM7.33301 11.3335C7.33301 10.9648 7.63101 10.6668 7.99967 10.6668C8.36834 10.6668 8.66634 10.9648 8.66634 11.3335C8.66634 11.7022 8.36834 12.0002 7.99967 12.0002C7.63101 12.0002 7.33301 11.7022 7.33301 11.3335ZM7.99967 13.3335C5.05901 13.3335 2.66634 10.9408 2.66634 8.00016C2.66634 5.0595 5.05901 2.66683 7.99967 2.66683C10.9403 2.66683 13.333 5.0595 13.333 8.00016C13.333 10.9408 10.9403 13.3335 7.99967 13.3335ZM7.99967 1.3335C4.32367 1.3335 1.33301 4.32416 1.33301 8.00016C1.33301 11.6762 4.32367 14.6668 7.99967 14.6668C11.6757 14.6668 14.6663 11.6762 14.6663 8.00016C14.6663 4.32416 11.6757 1.3335 7.99967 1.3335Z" fill="white"/>
</mask>
<g mask="url(#mask0_37_1178)">
<rect width="16" height="16" fill="#5761F6"/>
</g>
</svg>
