<svg width="16" height="16" viewBox="0 0 16 16" fill="none" xmlns="http://www.w3.org/2000/svg">
<path d="M8.78613 8.83911L10.2476 10.5026L15.9996 8.19067L14.0892 6.88184L8.78613 8.83911Z" fill="#F9BA03"/>
<path d="M1.9104 6.88184L0 8.19153L5.71838 10.5338L7.21167 8.83838L1.9104 6.88184Z" fill="#F9BA03"/>
<path d="M13.0791 6.25879L8 4.53271L2.9209 6.25879L8 8.14477L13.0791 6.25879Z" fill="#F9BA03"/>
<path d="M6.00061 11.6469L2.05664 9.98743V14.0917L7.53137 15.9999V9.90771L6.00061 11.6469Z" fill="#F9BA03"/>
<path d="M13.9435 9.98621L9.96582 11.6154L8.46875 9.91016V15.9996L13.9435 14.0914V9.98621Z" fill="#F9BA03"/>
<path d="M5.34366 3.46973C5.5889 3.46973 5.82376 3.25415 5.81241 3.00098C5.80105 2.74707 5.60647 2.53223 5.34366 2.53223C5.09842 2.53223 4.86355 2.7478 4.87491 3.00098C4.88626 3.25501 5.08084 3.46973 5.34366 3.46973Z" fill="#F9BA03"/>
<path d="M10.6562 3.46973C10.9014 3.46973 11.1363 3.25415 11.1249 3.00098C11.1136 2.74707 10.919 2.53223 10.6562 2.53223C10.4109 2.53223 10.1761 2.7478 10.1874 3.00098C10.1988 3.25501 10.3933 3.46973 10.6562 3.46973Z" fill="#F9BA03"/>
<path d="M7.52881 0H8.46631V0.885254H7.52881V0Z" fill="#F9BA03"/>
<path d="M7.52881 1.83984H8.46631V2.7196H7.52881V1.83984Z" fill="#F9BA03"/>
<path d="M8.47168 0.890625H9.35693V1.82812H8.47168V0.890625Z" fill="#F9BA03"/>
<path d="M6.6377 0.890625H7.52441V1.82812H6.6377V0.890625Z" fill="#F9BA03"/>
<path d="M12.983 5.29333H13.9205V4.7428H14.4711V3.8053H13.9205V3.25488H12.983V3.8053H12.4326V4.7428H12.983V5.29333Z" fill="#F9BA03"/>
<path d="M1.94214 5.29333H2.87964V4.7428H3.43005V3.8053H2.87964V3.25488H1.94214V3.8053H1.3916V4.7428H1.94214V5.29333Z" fill="#F9BA03"/>
</svg>
